<svg width="26" height="26" viewBox="0 0 26 26" fill="none" xmlns="http://www.w3.org/2000/svg">
<path d="M17.3518 2.1665H8.60927C6.90102 2.16851 5.26332 2.84807 4.05551 4.05609C2.8477 5.26411 2.16841 6.90192 2.16669 8.61017L2.16669 17.3527C2.16869 19.0609 2.84826 20.6986 4.05628 21.9064C5.26429 23.1142 6.9021 23.7935 8.61035 23.7952H17.3529C19.0611 23.7932 20.6988 23.1137 21.9066 21.9057C23.1144 20.6976 23.7937 19.0598 23.7954 17.3516V8.60909C23.7934 6.90084 23.1139 5.26314 21.9058 4.05533C20.6978 2.84751 19.06 2.16822 17.3518 2.1665V2.1665ZM21.6201 17.3516C21.6201 17.9121 21.5097 18.4671 21.2952 18.985C21.0807 19.5029 20.7663 19.9734 20.3699 20.3698C19.9736 20.7661 19.503 21.0805 18.9852 21.295C18.4673 21.5095 17.9123 21.6199 17.3518 21.6199H8.60927C7.47742 21.6196 6.39204 21.1698 5.5918 20.3694C4.79157 19.5689 4.34202 18.4834 4.34202 17.3516V8.60909C4.34231 7.47724 4.79213 6.39185 5.59257 5.59162C6.393 4.79139 7.47851 4.34184 8.61035 4.34184H17.3529C18.4847 4.34212 19.5701 4.79195 20.3703 5.59239C21.1706 6.39282 21.6201 7.47832 21.6201 8.61017V17.3527V17.3516Z" fill="white"/>
<path d="M12.9805 7.38721C11.4979 7.3895 10.0766 7.97956 9.02838 9.02803C7.98011 10.0765 7.39033 11.4978 7.38832 12.9805C7.39004 14.4635 7.97985 15.8852 9.02838 16.934C10.0769 17.9827 11.4986 18.5728 12.9816 18.5748C14.4648 18.5731 15.8867 17.9831 16.9355 16.9343C17.9842 15.8856 18.5742 14.4636 18.5759 12.9805C18.5736 11.4975 17.9833 10.0759 16.9343 9.02758C15.8854 7.97925 14.4635 7.38972 12.9805 7.38829V7.38721ZM12.9805 16.3995C12.074 16.3995 11.2046 16.0394 10.5637 15.3984C9.92267 14.7574 9.56257 13.888 9.56257 12.9815C9.56257 12.0751 9.92267 11.2057 10.5637 10.5647C11.2046 9.92372 12.074 9.56362 12.9805 9.56362C13.887 9.56362 14.7563 9.92372 15.3973 10.5647C16.0383 11.2057 16.3984 12.0751 16.3984 12.9815C16.3984 13.888 16.0383 14.7574 15.3973 15.3984C14.7563 16.0394 13.887 16.3995 12.9805 16.3995Z" fill="white"/>
<path d="M18.5857 8.76952C19.3258 8.76952 19.9258 8.16955 19.9258 7.42944C19.9258 6.68933 19.3258 6.08936 18.5857 6.08936C17.8456 6.08936 17.2456 6.68933 17.2456 7.42944C17.2456 8.16955 17.8456 8.76952 18.5857 8.76952Z" fill="white"/>
</svg>
