<svg width="41" height="41" viewBox="0 0 41 41" fill="none" xmlns="http://www.w3.org/2000/svg">
<path d="M37.5833 15.375V11.9583H35.875V8.54167H34.1667V6.83334H32.4583V5.125H29.0417V3.41667H25.625V1.70834H15.375V3.41667H11.9583V5.125H8.54167V6.83334H6.83333V8.54167H5.125V11.9583H3.41667V15.375H1.70833V27.3333H3.41667V29.0417H5.125V32.4583H6.83333V34.1667H8.54167V35.875H11.9583V37.5833H15.375V39.2917H25.625V37.5833H29.0417V35.875H32.4583V34.1667H34.1667V32.4583H35.875V29.0417H37.5833V25.625H39.2917V15.375H37.5833ZM35.875 17.0833V23.9167H30.75V17.0833H35.875ZM27.3333 6.83334H29.0417V8.54167H32.4583V11.9583H34.1667V13.6667H29.0417V8.54167H27.3333V6.83334ZM23.9167 30.75V34.1667H22.2083V35.875H18.7917V34.1667H17.0833V30.75H15.375V27.3333H25.625V30.75H23.9167ZM27.3333 17.0833V23.9167H13.6667V17.0833H27.3333ZM15.375 10.25H17.0833V6.83334H18.7917V5.125H22.2083V6.83334H23.9167V10.25H25.625V13.6667H15.375V10.25ZM6.83333 11.9583H8.54167V8.54167H11.9583V6.83334H13.6667V8.54167H11.9583V13.6667H6.83333V11.9583ZM5.125 23.9167V17.0833H10.25V23.9167H5.125ZM8.54167 32.4583V29.0417H6.83333V27.3333H11.9583V32.4583H13.6667V34.1667H11.9583V32.4583H8.54167ZM32.4583 29.0417V32.4583H29.0417V34.1667H27.3333V32.4583H29.0417V27.3333H34.1667V29.0417H32.4583Z" fill="#004A97"/>
</svg>
