<svg width="44" height="44" viewBox="0 0 44 44" fill="none" xmlns="http://www.w3.org/2000/svg">
<path d="M3.05554 33.6111H40.9444V10.3889H3.05554V33.6111Z" fill="#5C9E31"/>
<path d="M3.05554 33.6111H40.9444V25.6666H3.05554V33.6111Z" fill="black"/>
<path d="M3.05554 25.3611H40.9444V18.6389H3.05554V25.3611Z" fill="#D22F27" stroke="white" stroke-width="2" stroke-miterlimit="10"/>
<path d="M17.875 14.8555L26.125 29.1445L17.875 14.8555ZM17.875 29.1445L26.125 14.8555L17.875 29.1445Z" fill="white"/>
<path d="M17.875 14.8555L26.125 29.1445M17.875 29.1445L26.125 14.8555" stroke="white" stroke-linecap="round" stroke-linejoin="round"/>
<path d="M22.1411 28.6874C22.0975 28.7101 22.0491 28.7219 21.9999 28.7219C21.9508 28.7219 21.9024 28.7101 21.8588 28.6874C20.6761 28.0223 19.6954 27.0494 19.0209 25.872C18.3465 24.6947 18.0032 23.3566 18.0277 22C18.0031 20.6434 18.3461 19.3055 19.0204 18.1281C19.6947 16.9508 20.6751 15.9778 21.8576 15.3126C21.9011 15.2898 21.9496 15.2778 21.9987 15.2777H22.0012C22.0501 15.2779 22.0983 15.2899 22.1417 15.3126C23.3243 15.9778 24.3048 16.9506 24.9792 18.128C25.6536 19.3054 25.9967 20.6434 25.9722 22C25.9967 23.3566 25.6534 24.6947 24.9789 25.872C24.3045 27.0494 23.3238 28.0223 22.1411 28.6874Z" fill="#D22F27"/>
<path d="M25.4852 24.7495C24.7883 24.0068 24.4141 23.0182 24.4445 22.0001C24.4141 20.9818 24.7885 19.9929 25.4858 19.2501C26.1352 21.0257 26.1346 22.9739 25.4852 24.7495ZM18.5143 19.2507C19.2114 19.9934 19.5859 20.982 19.5556 22.0001C19.586 23.0182 19.2118 24.0068 18.5149 24.7495C17.8656 22.9741 17.8656 21.0262 18.5149 19.2507H18.5143Z" fill="black"/>
<path d="M22 27.5V16.5V27.5Z" fill="white"/>
<path d="M22 27.5V16.5" stroke="white" stroke-linecap="round" stroke-linejoin="round"/>
<path d="M3.05554 33.6111H40.9444V10.3889H3.05554V33.6111Z" stroke="black" stroke-width="2" stroke-linecap="round" stroke-linejoin="round"/>
</svg>
