<svg width="44" height="44" viewBox="0 0 44 44" fill="none" xmlns="http://www.w3.org/2000/svg">
<path d="M3.05554 10.3889H40.9444V33.6111H3.05554V10.3889Z" fill="white"/>
<path d="M3.05554 10.3889H13.4444V33.6111H3.05554V10.3889ZM30.5555 10.3889H40.9444V33.6111H30.5555V10.3889Z" fill="#D22F27"/>
<path d="M22 28.1111V25.0556V28.1111ZM22 25.0556H26.1556L25.6667 23.8334L28.1111 21.3889V19.5556H26.2778L23.8334 22V17.7222L22 15.8889M22 25.0556H17.8445L18.3334 23.8334L15.8889 21.3889V19.5556H17.7222L20.1667 22V17.7222L22 15.8889" fill="#D22F27"/>
<path d="M22 28.1111V25.0556M22 25.0556H26.1556L25.6667 23.8334L28.1111 21.3889V19.5556H26.2778L23.8334 22V17.7222L22 15.8889L20.1667 17.7222V22L17.7222 19.5556H15.8889V21.3889L18.3334 23.8334L17.8445 25.0556H22Z" stroke="#D22F27" stroke-width="2" stroke-linecap="round" stroke-linejoin="round"/>
<path d="M3.05554 10.3889H40.9444V33.6111H3.05554V10.3889Z" stroke="black" stroke-width="2" stroke-linecap="round" stroke-linejoin="round"/>
</svg>
