<svg width="44" height="44" viewBox="0 0 44 44" fill="none" xmlns="http://www.w3.org/2000/svg">
<path d="M3.05556 33.6111H40.9444V10.3889H3.05556V33.6111Z" fill="#5C9E31"/>
<path d="M3.05556 33.6111H40.9444V25.6666H3.05556V33.6111Z" fill="#E27022"/>
<path d="M3.05556 25.6667H40.9444V18.3334H3.05556V25.6667Z" fill="white"/>
<path d="M22.1809 22.6746L23.2222 24.1168L22.4938 22.4937L24.1169 23.2221L22.6747 22.1808L24.4444 21.9999L22.6747 21.819L24.1169 20.7777L22.4938 21.5061L23.2222 19.883L22.1809 21.3252L22 19.5554L21.8191 21.3252L20.7778 19.883L21.5062 21.5061L19.8831 20.7777L21.3253 21.819L19.5556 21.9999L21.3253 22.1808L19.8831 23.2221L21.5062 22.4937L20.7778 24.1168L21.8191 22.6746L22 24.4443L22.1809 22.6746Z" stroke="#1E50A0" stroke-linecap="round" stroke-linejoin="round"/>
<path d="M22 18.9446C23.6875 18.9446 25.0556 20.3126 25.0556 22.0001C25.0556 23.6876 23.6875 25.0557 22 25.0557C20.3125 25.0557 18.9444 23.6876 18.9444 22.0001C18.9444 20.3126 20.3125 18.9446 22 18.9446Z" stroke="#1E50A0" stroke-linecap="round" stroke-linejoin="round"/>
<path d="M3.05556 33.6111H40.9444V10.3889H3.05556V33.6111Z" stroke="black" stroke-width="2" stroke-linecap="round" stroke-linejoin="round"/>
</svg>
