<svg width="43" height="44" viewBox="0 0 43 44" fill="none" xmlns="http://www.w3.org/2000/svg">
<path d="M2.98608 33.6111H40.0139V10.3889H2.98608V33.6111Z" fill="#D22F27"/>
<path d="M14.3333 22.1529C14.9106 22.1529 15.3785 22.6317 15.3785 23.2223C15.3785 23.8129 14.9106 24.2917 14.3333 24.2917C13.7561 24.2917 13.2882 23.8129 13.2882 23.2223C13.2882 22.6317 13.7561 22.1529 14.3333 22.1529Z" fill="#F1B31C"/>
<path d="M14.3333 28.2639C14.9106 28.2639 15.3785 28.7427 15.3785 29.3334C15.3785 29.924 14.9106 30.4028 14.3333 30.4028C13.7561 30.4028 13.2882 29.924 13.2882 29.3334C13.2882 28.7427 13.7561 28.2639 14.3333 28.2639Z" fill="#F1B31C"/>
<path d="M16.7222 23.9861C17.2994 23.9861 17.7673 24.4649 17.7673 25.0556C17.7673 25.6462 17.2994 26.125 16.7222 26.125C16.145 26.125 15.6771 25.6462 15.6771 25.0556C15.6771 24.4649 16.145 23.9861 16.7222 23.9861Z" fill="#F1B31C"/>
<path d="M16.7222 27.0418C17.2994 27.0418 17.7673 27.5206 17.7673 28.1112C17.7673 28.7019 17.2994 29.1807 16.7222 29.1807C16.145 29.1807 15.6771 28.7019 15.6771 28.1112C15.6771 27.5206 16.145 27.0418 16.7222 27.0418Z" fill="#F1B31C"/>
<path d="M8.07924 24.1724L9.55558 29.0613L11.0325 24.1724L7.16669 27.1943H11.9445L8.07924 24.1724Z" fill="#F1B31C" stroke="#F1B31C" stroke-linecap="round" stroke-linejoin="round"/>
<path d="M2.98608 33.6111H40.0139V10.3889H2.98608V33.6111Z" stroke="black" stroke-width="2" stroke-linecap="round" stroke-linejoin="round"/>
</svg>
