<svg width="41" height="41" viewBox="0 0 41 41" fill="none" xmlns="http://www.w3.org/2000/svg">
<path d="M37.5833 15.3752V11.9585H35.875V8.54183H34.1667V6.8335H32.4583V5.12516H29.0417V3.41683H25.625V1.7085H15.375V3.41683H11.9583V5.12516H8.54166V6.8335H6.83333V8.54183H5.12499V11.9585H3.41666V15.3752H1.70833V27.3335H3.41666V29.0418H5.12499V32.4585H6.83333V34.1668H8.54166V35.8752H11.9583V37.5835H15.375V39.2918H25.625V37.5835H29.0417V35.8752H32.4583V34.1668H34.1667V32.4585H35.875V29.0418H37.5833V25.6252H39.2917V15.3752H37.5833ZM35.875 17.0835V23.9168H30.75V17.0835H35.875ZM27.3333 6.8335H29.0417V8.54183H32.4583V11.9585H34.1667V13.6668H29.0417V8.54183H27.3333V6.8335ZM23.9167 30.7502V34.1668H22.2083V35.8752H18.7917V34.1668H17.0833V30.7502H15.375V27.3335H25.625V30.7502H23.9167ZM27.3333 17.0835V23.9168H13.6667V17.0835H27.3333ZM15.375 10.2502H17.0833V6.8335H18.7917V5.12516H22.2083V6.8335H23.9167V10.2502H25.625V13.6668H15.375V10.2502ZM6.83333 11.9585H8.54166V8.54183H11.9583V6.8335H13.6667V8.54183H11.9583V13.6668H6.83333V11.9585ZM5.12499 23.9168V17.0835H10.25V23.9168H5.12499ZM8.54166 32.4585V29.0418H6.83333V27.3335H11.9583V32.4585H13.6667V34.1668H11.9583V32.4585H8.54166ZM32.4583 29.0418V32.4585H29.0417V34.1668H27.3333V32.4585H29.0417V27.3335H34.1667V29.0418H32.4583Z" fill="white"/>
</svg>
