<svg width="28" height="28" viewBox="0 0 28 28" fill="none" xmlns="http://www.w3.org/2000/svg">
<g clip-path="url(#clip0_3426_2309)">
<path d="M14 4.6665C14.9975 4.6665 16.0207 4.69217 17.0123 4.73417L18.1837 4.79017L19.3048 4.85667L20.3548 4.92784L21.3138 5.0025C22.3546 5.08216 23.3339 5.52628 24.0795 6.25672C24.8251 6.98716 25.2892 7.95713 25.3902 8.996L25.4368 9.49184L25.5243 10.5535C25.606 11.6537 25.6667 12.853 25.6667 13.9998C25.6667 15.1467 25.606 16.346 25.5243 17.4462L25.4368 18.5078C25.4217 18.6782 25.4065 18.8427 25.3902 19.0037C25.2891 20.0427 24.8248 21.0128 24.079 21.7433C23.3332 22.4738 22.3536 22.9178 21.3127 22.9972L20.356 23.0707L19.306 23.143L18.1837 23.2095L17.0123 23.2655C16.0088 23.3091 15.0045 23.3317 14 23.3332C12.9955 23.3317 11.9912 23.3091 10.9877 23.2655L9.81634 23.2095L8.69518 23.143L7.64518 23.0707L6.68618 22.9972C5.64545 22.9175 4.66615 22.4734 3.92056 21.743C3.17497 21.0125 2.71085 20.0425 2.60984 19.0037L2.56318 18.5078L2.47568 17.4462C2.38647 16.2995 2.33899 15.15 2.33334 13.9998C2.33334 12.853 2.39401 11.6537 2.47568 10.5535L2.56318 9.49184C2.57834 9.3215 2.59351 9.157 2.60984 8.996C2.71081 7.95732 3.17476 6.98749 3.92012 6.25707C4.66547 5.52665 5.64449 5.08242 6.68501 5.0025L7.64284 4.92784L8.69284 4.85667L9.81518 4.79017L10.9865 4.73417C11.9904 4.69058 12.9951 4.66802 14 4.6665ZM14 6.99984C13.0375 6.99984 12.047 7.0255 11.0833 7.06517L9.94234 7.12L8.84684 7.18417L7.81784 7.25417L6.87518 7.32767C6.37973 7.36282 5.91273 7.57226 5.55695 7.91885C5.20118 8.26544 4.9796 8.72681 4.93151 9.22117C4.79501 10.6317 4.66668 12.3875 4.66668 13.9998C4.66668 15.6122 4.79501 17.368 4.93151 18.7785C5.03068 19.7958 5.83801 20.5868 6.87518 20.672L7.81784 20.7443L8.84684 20.8143L9.94234 20.8797L11.0833 20.9345C12.047 20.9742 13.0375 20.9998 14 20.9998C14.9625 20.9998 15.953 20.9742 16.9167 20.9345L18.0577 20.8797L19.1532 20.8155L20.1822 20.7455L21.1248 20.672C21.6203 20.6369 22.0873 20.4274 22.4431 20.0808C22.7988 19.7342 23.0204 19.2729 23.0685 18.7785C23.205 17.368 23.3333 15.6122 23.3333 13.9998C23.3333 12.3875 23.205 10.6317 23.0685 9.22117C23.0204 8.72681 22.7988 8.26544 22.4431 7.91885C22.0873 7.57226 21.6203 7.36282 21.1248 7.32767L20.1822 7.25534L19.1532 7.18534L18.0577 7.12L16.9167 7.06517C15.945 7.02336 14.9726 7.00158 14 6.99984ZM11.6667 11.1707C11.6666 11.0566 11.6944 10.9443 11.7476 10.8435C11.8008 10.7426 11.8779 10.6563 11.9721 10.592C12.0662 10.5278 12.1747 10.4875 12.288 10.4746C12.4013 10.4618 12.516 10.4769 12.6222 10.5185L12.7167 10.5652L17.6167 13.3932C17.7143 13.4495 17.7968 13.5285 17.8573 13.6235C17.9178 13.7185 17.9545 13.8268 17.9642 13.939C17.974 14.0512 17.9565 14.1641 17.9132 14.2682C17.87 14.3722 17.8023 14.4642 17.7158 14.5365L17.6167 14.6065L12.7167 17.4357C12.6179 17.4929 12.5067 17.525 12.3927 17.5294C12.2787 17.5338 12.1653 17.5102 12.0625 17.4607C11.9596 17.4113 11.8705 17.3374 11.8027 17.2456C11.7349 17.1538 11.6906 17.0468 11.6737 16.934L11.6667 16.829V11.1707Z" fill="white"/>
</g>
<defs>
<clipPath id="clip0_3426_2309">
<rect width="28" height="28" fill="white"/>
</clipPath>
</defs>
</svg>
